<svg width="44" height="44" viewBox="0 0 44 44" fill="none" xmlns="http://www.w3.org/2000/svg">
<rect width="44" height="44" rx="22" fill="#1E9A80"/>
<g clip-path="url(#clip0)">
<path fill-rule="evenodd" clip-rule="evenodd" d="M12.0996 19.25V28.05H14.8496C15.1385 28.05 15.4246 28.1069 15.6915 28.2175C15.9584 28.328 16.201 28.4901 16.4052 28.6944C16.6095 28.8987 16.7716 29.1412 16.8822 29.4081C16.9927 29.675 17.0496 29.9611 17.0496 30.25V33H23.6496L31.8996 24.75V15.95H29.1496C28.8607 15.95 28.5746 15.8931 28.3077 15.7825C28.0408 15.672 27.7983 15.5099 27.594 15.3056C27.3897 15.1014 27.2276 14.8588 27.117 14.5919C27.0065 14.325 26.9496 14.0389 26.9496 13.75V11H20.3496L12.0996 19.25ZM21.4496 27.5H17.5996V21.45L22.5496 16.5H26.3996V22.55L21.4496 27.5Z" fill="white"/>
</g>
<defs>
<clipPath id="clip0">
<rect width="19.8" height="22" fill="white" transform="translate(12.0996 11)"/>
</clipPath>
</defs>
</svg>

