<svg width="26" height="10" viewBox="0 0 26 10" fill="none" xmlns="http://www.w3.org/2000/svg">
<path d="M1.84944 9.11933C1.51137 9.11933 1.20172 9.03695 0.920466 8.87217C0.639216 8.70456 0.414784 8.48013 0.24717 8.19888C0.0823975 7.91763 1.11461e-05 7.60797 1.11461e-05 7.2699C1.11461e-05 6.92899 0.0823975 6.61791 0.24717 6.33666C0.414784 6.05541 0.639216 5.83098 0.920466 5.66337C1.20172 5.49575 1.51137 5.41195 1.84944 5.41195H2.83808V3.69888H1.84944C1.51137 3.69888 1.20172 3.61649 0.920466 3.45172C0.639216 3.2841 0.414784 3.06109 0.24717 2.78268C0.0823975 2.50143 1.11461e-05 2.19035 1.11461e-05 1.84945C1.11461e-05 1.50854 0.0823975 1.19888 0.24717 0.920468C0.414784 0.639218 0.639216 0.416207 0.920466 0.251434C1.20172 0.0838203 1.51137 1.33514e-05 1.84944 1.33514e-05C2.19035 1.33514e-05 2.50143 0.0838203 2.78268 0.251434C3.06393 0.416207 3.28836 0.639218 3.45598 0.920468C3.62359 1.19888 3.7074 1.50854 3.7074 1.84945V2.82956H5.42047V1.84945C5.42047 1.50854 5.50285 1.19888 5.66763 0.920468C5.83524 0.639218 6.05825 0.416207 6.33666 0.251434C6.61791 0.0838203 6.92899 1.33514e-05 7.2699 1.33514e-05C7.61081 1.33514e-05 7.92047 0.0838203 8.19888 0.251434C8.48013 0.416207 8.70314 0.639218 8.86791 0.920468C9.03552 1.19888 9.11933 1.50854 9.11933 1.84945C9.11933 2.19035 9.03552 2.50143 8.86791 2.78268C8.70314 3.06109 8.48013 3.2841 8.19888 3.45172C7.92047 3.61649 7.61081 3.69888 7.2699 3.69888H6.28978V5.41195H7.2699C7.61081 5.41195 7.92047 5.49575 8.19888 5.66337C8.48013 5.83098 8.70314 6.05541 8.86791 6.33666C9.03552 6.61791 9.11933 6.92899 9.11933 7.2699C9.11933 7.60797 9.03552 7.91763 8.86791 8.19888C8.70314 8.48013 8.48013 8.70456 8.19888 8.87217C7.92047 9.03695 7.61081 9.11933 7.2699 9.11933C6.92899 9.11933 6.61791 9.03695 6.33666 8.87217C6.05825 8.70456 5.83524 8.48013 5.66763 8.19888C5.50285 7.91763 5.42047 7.60797 5.42047 7.2699V6.28126H3.7074V7.2699C3.7074 7.60797 3.62359 7.91763 3.45598 8.19888C3.28836 8.48013 3.06393 8.70456 2.78268 8.87217C2.50143 9.03695 2.19035 9.11933 1.84944 9.11933ZM1.84944 8.25001C2.03126 8.25001 2.19603 8.20598 2.34376 8.11791C2.49433 8.02984 2.61365 7.91195 2.70172 7.76422C2.79262 7.61365 2.83808 7.44888 2.83808 7.2699V6.28126H1.84944C1.67047 6.28126 1.50569 6.32672 1.35512 6.41763C1.2074 6.5057 1.0895 6.62501 1.00143 6.77558C0.913363 6.92331 0.869329 7.08808 0.869329 7.2699C0.869329 7.44888 0.913363 7.61365 1.00143 7.76422C1.0895 7.91195 1.2074 8.02984 1.35512 8.11791C1.50569 8.20598 1.67047 8.25001 1.84944 8.25001ZM1.84944 2.82956H2.83808V1.84945C2.83808 1.66763 2.79262 1.50285 2.70172 1.35513C2.61365 1.2074 2.49433 1.0895 2.34376 1.00143C2.19603 0.913366 2.03126 0.869332 1.84944 0.869332C1.67047 0.869332 1.50569 0.913366 1.35512 1.00143C1.2074 1.0895 1.0895 1.2074 1.00143 1.35513C0.913363 1.50285 0.869329 1.66763 0.869329 1.84945C0.869329 2.03126 0.913363 2.19746 1.00143 2.34802C1.0895 2.49575 1.2074 2.61365 1.35512 2.70172C1.50569 2.78695 1.67047 2.82956 1.84944 2.82956ZM6.28978 2.82956H7.2699C7.45172 2.82956 7.61649 2.78695 7.76422 2.70172C7.91194 2.61365 8.02984 2.49575 8.11791 2.34802C8.20598 2.19746 8.25001 2.03126 8.25001 1.84945C8.25001 1.66763 8.20598 1.50285 8.11791 1.35513C8.02984 1.2074 7.91194 1.0895 7.76422 1.00143C7.61649 0.913366 7.45172 0.869332 7.2699 0.869332C7.08808 0.869332 6.92189 0.913366 6.77132 1.00143C6.62359 1.0895 6.50569 1.2074 6.41763 1.35513C6.3324 1.50285 6.28978 1.66763 6.28978 1.84945V2.82956ZM7.2699 8.25001C7.45172 8.25001 7.61649 8.20598 7.76422 8.11791C7.91194 8.02984 8.02984 7.91195 8.11791 7.76422C8.20598 7.61365 8.25001 7.44888 8.25001 7.2699C8.25001 7.08808 8.20598 6.92331 8.11791 6.77558C8.02984 6.62501 7.91194 6.5057 7.76422 6.41763C7.61649 6.32672 7.45172 6.28126 7.2699 6.28126H6.28978V7.2699C6.28978 7.44888 6.3324 7.61365 6.41763 7.76422C6.50569 7.91195 6.62359 8.02984 6.77132 8.11791C6.92189 8.20598 7.08808 8.25001 7.2699 8.25001ZM3.7074 5.41195H5.42047V3.69888H3.7074V5.41195ZM14.0401 7.38922V1.76422H14.9947V7.38922H14.0401ZM11.7049 5.05399V4.09945H17.3299V5.05399H11.7049ZM19.5298 8.92331V0.196036H20.5867V4.52558H20.6889L24.6094 0.196036H25.9901L22.3253 4.13354L25.9901 8.92331H24.7117L21.6776 4.86649L20.5867 6.09376V8.92331H19.5298Z" fill="#404040"/>
</svg>
